REM DIRINDEX 1\8,1\2\11,1\3\12,1\3\14,1\5\15,1\5\16,1\6\17,1\6\18,1\4\19,1\4\20,1\4\21,1\4\22,1\7\23,1\7\24,1\7\25,1\2\9\26,1\2\9\27,1\2\10\28,1\2\10\29,1\2\10\30,1\2\10\31,1\2\10\32,1\3\13\33,1\3\13\34,1\3\13\35
REM DIRNAME cjc123,folder01,folder02,folder03,folder04,folder05,folder06,folder07,folder08,folder09,folder10,folder11,folder12,folder13,folder14,folder15,folder16,folder17,folder18,folder19,folder20,folder21,folder22,folder23,folder24,folder25,folder26,folder27,folder28,folder29,folder30,folder31,folder32,folder33,folder34
TITLE ""
FILE "71 071_UNIT7_SET5.mp3" MP3
  TRACK 01 AUDIO
    TITLE "11:cjc123_6950"
    INDEX 01 00:00:00
  TRACK 02 AUDIO
    TITLE "0:"
    INDEX 01 00:02:40
  TRACK 03 AUDIO
    TITLE "28:cjc123_6951"
    INDEX 01 00:03:19
  TRACK 04 AUDIO
    TITLE "0:"
    INDEX 01 00:04:17
  TRACK 05 AUDIO
    TITLE "29:cjc123_6952"
    INDEX 01 00:04:27
  TRACK 06 AUDIO
    TITLE "0:"
    INDEX 01 00:05:56
  TRACK 07 AUDIO
    TITLE "30:cjc123_6953"
    INDEX 01 00:05:61
  TRACK 08 AUDIO
    TITLE "0:"
    INDEX 01 00:06:67
  TRACK 09 AUDIO
    TITLE "31:cjc123_6954"
    INDEX 01 00:07:39
  TRACK 10 AUDIO
    TITLE "0:"
    INDEX 01 00:11:56
  TRACK 11 AUDIO
    TITLE "32:cjc123_6955"
    INDEX 01 00:12:12
  TRACK 12 AUDIO
    TITLE "0:"
    INDEX 01 00:16:08
  TRACK 13 AUDIO
    TITLE "28:cjc123_6956"
    INDEX 01 00:16:49
  TRACK 14 AUDIO
    TITLE "0:"
    INDEX 01 00:17:65
  TRACK 15 AUDIO
    TITLE "29:cjc123_6957"
    INDEX 01 00:17:72
  TRACK 16 AUDIO
    TITLE "0:"
    INDEX 01 00:19:16
  TRACK 17 AUDIO
    TITLE "30:cjc123_6958"
    INDEX 01 00:19:26
  TRACK 18 AUDIO
    TITLE "0:"
    INDEX 01 00:20:43
  TRACK 19 AUDIO
    TITLE "31:cjc123_6959"
    INDEX 01 00:21:19
  TRACK 20 AUDIO
    TITLE "0:"
    INDEX 01 00:27:20
  TRACK 21 AUDIO
    TITLE "32:cjc123_6960"
    INDEX 01 00:28:02
  TRACK 22 AUDIO
    TITLE "0:"
    INDEX 01 00:35:08
  TRACK 23 AUDIO
    TITLE "28:cjc123_6961"
    INDEX 01 00:35:45
  TRACK 24 AUDIO
    TITLE "0:"
    INDEX 01 00:36:68
  TRACK 25 AUDIO
    TITLE "29:cjc123_6962"
    INDEX 01 00:37:03
  TRACK 26 AUDIO
    TITLE "0:"
    INDEX 01 00:38:16
  TRACK 27 AUDIO
    TITLE "30:cjc123_6963"
    INDEX 01 00:38:31
  TRACK 28 AUDIO
    TITLE "0:"
    INDEX 01 00:39:56
  TRACK 29 AUDIO
    TITLE "31:cjc123_6964"
    INDEX 01 00:40:24
  TRACK 30 AUDIO
    TITLE "0:"
    INDEX 01 00:45:04
  TRACK 31 AUDIO
    TITLE "32:cjc123_6965"
    INDEX 01 00:45:53
  TRACK 32 AUDIO
    TITLE "0:"
    INDEX 01 00:50:07
  TRACK 33 AUDIO
    TITLE "28:cjc123_6966"
    INDEX 01 00:50:33
  TRACK 34 AUDIO
    TITLE "0:"
    INDEX 01 00:51:34
  TRACK 35 AUDIO
    TITLE "29:cjc123_6967"
    INDEX 01 00:51:44
  TRACK 36 AUDIO
    TITLE "0:"
    INDEX 01 00:52:37
  TRACK 37 AUDIO
    TITLE "30:cjc123_6968"
    INDEX 01 00:52:41
  TRACK 38 AUDIO
    TITLE "0:"
    INDEX 01 00:53:53
  TRACK 39 AUDIO
    TITLE "31:cjc123_6969"
    INDEX 01 00:54:46
  TRACK 40 AUDIO
    TITLE "0:"
    INDEX 01 00:59:10
  TRACK 41 AUDIO
    TITLE "32:cjc123_6970"
    INDEX 01 00:59:51
  TRACK 42 AUDIO
    TITLE "0:"
    INDEX 01 01:04:11
  TRACK 43 AUDIO
    TITLE "28:cjc123_6971"
    INDEX 01 01:04:50
  TRACK 44 AUDIO
    TITLE "0:"
    INDEX 01 01:05:52
  TRACK 45 AUDIO
    TITLE "29:cjc123_6972"
    INDEX 01 01:06:02
  TRACK 46 AUDIO
    TITLE "0:"
    INDEX 01 01:07:14
  TRACK 47 AUDIO
    TITLE "30:cjc123_6973"
    INDEX 01 01:07:19
  TRACK 48 AUDIO
    TITLE "0:"
    INDEX 01 01:08:19
  TRACK 49 AUDIO
    TITLE "31:cjc123_6974"
    INDEX 01 01:08:70
  TRACK 50 AUDIO
    TITLE "0:"
    INDEX 01 01:14:66
  TRACK 51 AUDIO
    TITLE "32:cjc123_6975"
    INDEX 01 01:15:37
  TRACK 52 AUDIO
    TITLE "0:"
    INDEX 01 01:22:11
  TRACK 53 AUDIO
    TITLE "28:cjc123_6976"
    INDEX 01 01:22:27
  TRACK 54 AUDIO
    TITLE "0:"
    INDEX 01 01:23:34
  TRACK 55 AUDIO
    TITLE "29:cjc123_6977"
    INDEX 01 01:23:42
  TRACK 56 AUDIO
    TITLE "0:"
    INDEX 01 01:25:25
  TRACK 57 AUDIO
    TITLE "30:cjc123_6978"
    INDEX 01 01:25:33
  TRACK 58 AUDIO
    TITLE "0:"
    INDEX 01 01:26:50
  TRACK 59 AUDIO
    TITLE "31:cjc123_6979"
    INDEX 01 01:27:34
  TRACK 60 AUDIO
    TITLE "0:"
    INDEX 01 01:32:55
  TRACK 61 AUDIO
    TITLE "32:cjc123_6980"
    INDEX 01 01:33:03
  TRACK 62 AUDIO
    TITLE "0:"
    INDEX 01 01:39:17
  TRACK 63 AUDIO
    TITLE "28:cjc123_6981"
    INDEX 01 01:39:35
  TRACK 64 AUDIO
    TITLE "0:"
    INDEX 01 01:40:50
  TRACK 65 AUDIO
    TITLE "29:cjc123_6982"
    INDEX 01 01:40:64
  TRACK 66 AUDIO
    TITLE "0:"
    INDEX 01 01:42:16
  TRACK 67 AUDIO
    TITLE "30:cjc123_6983"
    INDEX 01 01:42:22
  TRACK 68 AUDIO
    TITLE "0:"
    INDEX 01 01:43:41
  TRACK 69 AUDIO
    TITLE "31:cjc123_6984"
    INDEX 01 01:44:15
  TRACK 70 AUDIO
    TITLE "0:"
    INDEX 01 01:47:70
  TRACK 71 AUDIO
    TITLE "32:cjc123_6985"
    INDEX 01 01:48:38
  TRACK 72 AUDIO
    TITLE "0:"
    INDEX 01 01:52:28
  TRACK 73 AUDIO
    TITLE "28:cjc123_6986"
    INDEX 01 01:52:71
  TRACK 74 AUDIO
    TITLE "0:"
    INDEX 01 01:53:74
  TRACK 75 AUDIO
    TITLE "29:cjc123_6987"
    INDEX 01 01:54:07
  TRACK 76 AUDIO
    TITLE "0:"
    INDEX 01 01:55:40
  TRACK 77 AUDIO
    TITLE "30:cjc123_6988"
    INDEX 01 01:55:48
  TRACK 78 AUDIO
    TITLE "0:"
    INDEX 01 01:56:53
  TRACK 79 AUDIO
    TITLE "31:cjc123_6989"
    INDEX 01 01:57:19
  TRACK 80 AUDIO
    TITLE "0:"
    INDEX 01 02:00:53
  TRACK 81 AUDIO
    TITLE "32:cjc123_6990"
    INDEX 01 02:01:23
  TRACK 82 AUDIO
    TITLE "0:"
    INDEX 01 02:05:34
  TRACK 83 AUDIO
    TITLE "28:cjc123_6991"
    INDEX 01 02:06:05
  TRACK 84 AUDIO
    TITLE "0:"
    INDEX 01 02:07:14
  TRACK 85 AUDIO
    TITLE "29:cjc123_6992"
    INDEX 01 02:07:24
  TRACK 86 AUDIO
    TITLE "0:"
    INDEX 01 02:08:50
  TRACK 87 AUDIO
    TITLE "30:cjc123_6993"
    INDEX 01 02:08:54
  TRACK 88 AUDIO
    TITLE "0:"
    INDEX 01 02:09:58
  TRACK 89 AUDIO
    TITLE "31:cjc123_6994"
    INDEX 01 02:10:30
  TRACK 90 AUDIO
    TITLE "0:"
    INDEX 01 02:16:05
  TRACK 91 AUDIO
    TITLE "32:cjc123_6995"
    INDEX 01 02:16:44
  TRACK 92 AUDIO
    TITLE "0:"
    INDEX 01 02:21:47
  TRACK 93 AUDIO
    TITLE "28:cjc123_6996"
    INDEX 01 02:21:73
  TRACK 94 AUDIO
    TITLE "0:"
    INDEX 01 02:22:58
  TRACK 95 AUDIO
    TITLE "29:cjc123_6997"
    INDEX 01 02:22:68
  TRACK 96 AUDIO
    TITLE "0:"
    INDEX 01 02:24:20
  TRACK 97 AUDIO
    TITLE "30:cjc123_6998"
    INDEX 01 02:24:26
  TRACK 98 AUDIO
    TITLE "0:"
    INDEX 01 02:25:14
  TRACK 99 AUDIO
    TITLE "31:cjc123_6999"
    INDEX 01 02:26:03
  TRACK 100 AUDIO
    TITLE "0:"
    INDEX 01 02:32:37
  TRACK 101 AUDIO
    TITLE "32:cjc123_7000"
    INDEX 01 02:32:57
  TRACK 102 AUDIO
    TITLE "0:"
    INDEX 01 02:39:73
  TRACK 103 AUDIO
    TITLE "28:cjc123_7001"
    INDEX 01 02:40:47
  TRACK 104 AUDIO
    TITLE "0:"
    INDEX 01 02:41:58
  TRACK 105 AUDIO
    TITLE "29:cjc123_7002"
    INDEX 01 02:41:69
  TRACK 106 AUDIO
    TITLE "0:"
    INDEX 01 02:43:02
  TRACK 107 AUDIO
    TITLE "30:cjc123_7003"
    INDEX 01 02:43:14
  TRACK 108 AUDIO
    TITLE "0:"
    INDEX 01 02:44:13
  TRACK 109 AUDIO
    TITLE "31:cjc123_7004"
    INDEX 01 02:44:64
  TRACK 110 AUDIO
    TITLE "0:"
    INDEX 01 02:51:19
  TRACK 111 AUDIO
    TITLE "32:cjc123_7005"
    INDEX 01 02:51:68
  TRACK 112 AUDIO
    TITLE "0:"
    INDEX 01 02:59:46
  TRACK 113 AUDIO
    TITLE "28:cjc123_7006"
    INDEX 01 03:00:18
  TRACK 114 AUDIO
    TITLE "0:"
    INDEX 01 03:01:25
  TRACK 115 AUDIO
    TITLE "29:cjc123_7007"
    INDEX 01 03:01:35
  TRACK 116 AUDIO
    TITLE "0:"
    INDEX 01 03:03:40
  TRACK 117 AUDIO
    TITLE "30:cjc123_7008"
    INDEX 01 03:03:50
  TRACK 118 AUDIO
    TITLE "0:"
    INDEX 01 03:04:74
  TRACK 119 AUDIO
    TITLE "31:cjc123_7009"
    INDEX 01 03:05:56
  TRACK 120 AUDIO
    TITLE "0:"
    INDEX 01 03:10:01
  TRACK 121 AUDIO
    TITLE "32:cjc123_7010"
    INDEX 01 03:10:34
  TRACK 122 AUDIO
    TITLE "0:"
    INDEX 01 03:15:49
  TRACK 123 AUDIO
    TITLE "28:cjc123_7011"
    INDEX 01 03:16:11
  TRACK 124 AUDIO
    TITLE "0:"
    INDEX 01 03:17:28
  TRACK 125 AUDIO
    TITLE "29:cjc123_7012"
    INDEX 01 03:17:38
  TRACK 126 AUDIO
    TITLE "0:"
    INDEX 01 03:18:65
  TRACK 127 AUDIO
    TITLE "30:cjc123_7013"
    INDEX 01 03:18:73
  TRACK 128 AUDIO
    TITLE "0:"
    INDEX 01 03:20:01
  TRACK 129 AUDIO
    TITLE "31:cjc123_7014"
    INDEX 01 03:20:54
  TRACK 130 AUDIO
    TITLE "0:"
    INDEX 01 03:27:62
  TRACK 131 AUDIO
    TITLE "32:cjc123_7015"
    INDEX 01 03:28:30
  TRACK 132 AUDIO
    TITLE "0:"
    INDEX 01 03:37:31
  TRACK 133 AUDIO
    TITLE "28:cjc123_7016"
    INDEX 01 03:37:64
  TRACK 134 AUDIO
    TITLE "0:"
    INDEX 01 03:39:10
  TRACK 135 AUDIO
    TITLE "29:cjc123_7017"
    INDEX 01 03:39:22
  TRACK 136 AUDIO
    TITLE "0:"
    INDEX 01 03:40:25
  TRACK 137 AUDIO
    TITLE "30:cjc123_7018"
    INDEX 01 03:40:51
  TRACK 138 AUDIO
    TITLE "0:"
    INDEX 01 03:41:68
  TRACK 139 AUDIO
    TITLE "31:cjc123_7019"
    INDEX 01 03:42:44
  TRACK 140 AUDIO
    TITLE "0:"
    INDEX 01 03:47:10
  TRACK 141 AUDIO
    TITLE "32:cjc123_7020"
    INDEX 01 03:47:43
  TRACK 142 AUDIO
    TITLE "0:"
    INDEX 01 03:52:07
  TRACK 143 AUDIO
    TITLE "28:cjc123_7021"
    INDEX 01 03:52:58
  TRACK 144 AUDIO
    TITLE "0:"
    INDEX 01 03:53:61
  TRACK 145 AUDIO
    TITLE "29:cjc123_7022"
    INDEX 01 03:53:71
  TRACK 146 AUDIO
    TITLE "0:"
    INDEX 01 03:55:17
  TRACK 147 AUDIO
    TITLE "30:cjc123_7023"
    INDEX 01 03:55:19
  TRACK 148 AUDIO
    TITLE "0:"
    INDEX 01 03:56:32
  TRACK 149 AUDIO
    TITLE "31:cjc123_7024"
    INDEX 01 03:57:04
  TRACK 150 AUDIO
    TITLE "0:"
    INDEX 01 04:02:31
  TRACK 151 AUDIO
    TITLE "32:cjc123_7025"
    INDEX 01 04:02:72
  TRACK 152 AUDIO
    TITLE "0:"
    INDEX 01 04:08:10
